<?xml version="1.0" encoding="utf-8"?>
<!DOCTYPE svg PUBLIC "-//W3C//DTD SVG 1.0//EN" "http://www.w3.org/TR/2001/REC-SVG-20010904/DTD/svg10.dtd">
<svg version="1.0" xmlns="http://www.w3.org/2000/svg" width="731px" height="300px" viewBox="0 0 731 300" preserveAspectRatio="xMidYMid meet">
 <g fill="#000000">
  <path d="M420 196.1 c-4.1 -0.4 -9.1 -1.5 -11 -2.4 -4.6 -2.2 -10.4 -7.8 -12.3 -12 -2.5 -5.3 -3.9 -20.5 -3.4 -37 0.7 -20.4 2.5 -25.5 11 -29.8 7.6 -3.9 32.1 -4.8 40 -1.5 6.3 2.6 10.5 6.5 12.4 11.4 1.5 4 1.8 7.9 1.8 27.2 0 14.9 -0.5 24.5 -1.4 28.3 -1.5 6.9 -5.4 11.8 -11 14 -4.8 2 -16.2 2.7 -26.1 1.8z m20.3 -5.2 c4.8 -1.3 10.3 -6.1 11.6 -10.2 2.7 -8.4 3.9 -34.4 2 -45.7 -1.3 -8.4 -3.4 -11.8 -9.4 -15.5 -4.4 -2.7 -5.7 -3 -15.5 -3.3 -18.4 -0.7 -26.5 3.1 -29.5 13.6 -1.4 4.6 -1.6 8.9 -1.2 24.2 0.3 11.8 0.9 19.9 1.8 22.4 1.7 5.1 8.8 12.1 14.1 13.9 5.1 1.8 20.6 2.2 26.1 0.6z"/>
  <path d="M416.3 174 l-3.3 -2 0 -14.9 c0 -8.2 0.4 -16.1 1 -17.6 1.4 -3.8 7 -5.8 14.8 -5.3 5.5 0.3 6.8 0.8 8.8 3.1 2.8 3.3 3.9 11 3.1 22.8 -0.8 10.5 -2 13.5 -6 14.9 -5.1 1.7 -14.8 1.2 -18.4 -1z m16.9 -4.1 c1.7 -0.9 2.1 -2.4 3.3 -12.2 0.8 -6.1 -1 -15 -3.5 -17.2 -2.5 -2.2 -9.1 -2.3 -12.3 -0.2 -2.8 1.8 -3.7 6.5 -3.7 19.2 0 8.9 0.5 9.9 5.7 11.5 2.9 0.9 7.6 0.4 10.5 -1.1z"/>
  <path d="M558.9 195.7 c-9 -3.4 -14.6 -11.1 -18 -24.7 -1.9 -7.4 -2.1 -10.3 -1.6 -22.5 0.3 -8.7 1.1 -16 2.2 -19.3 3.9 -12.6 18.7 -19.5 36.7 -17.1 18.7 2.5 26.8 12.2 26.8 32.3 l0 9.5 -4.7 0.7 c-2.6 0.4 -12 0.7 -21 0.8 l-16.3 0.1 0 3.5 c0 10.8 6.7 18 14 15 3 -1.2 4.7 -4.4 5.2 -9.5 l0.3 -3 9.2 -0.3 c12.8 -0.4 13.6 0.1 12.8 8.6 -1.5 16.4 -3.4 20.6 -10.8 24.4 -3.6 1.8 -6.3 2.2 -17.7 2.5 -9.7 0.2 -14.5 0 -17.1 -1z m30.6 -5.6 c2.2 -1 4.9 -2.8 5.9 -4 1.9 -2.1 4.5 -12.1 4.6 -17.3 0 -2.8 0 -2.8 -7 -2.8 l-7 0 0 3.1 c0 7 -3.4 9.8 -12.1 9.9 -11.2 0 -14.9 -4.7 -14.9 -19.5 l0 -8.5 15.8 0 c8.6 0 18.1 -0.3 21.1 -0.7 l5.4 -0.6 -0.6 -7.1 c-1.2 -14.4 -8.7 -23.1 -22.1 -25.6 -10 -1.9 -16.8 -0.5 -25.3 5.2 -5.6 3.8 -8 9.1 -9.4 21.3 -2.5 21 4.1 40.8 15.4 46.4 5.8 2.9 24.1 3 30.2 0.2z"/>
  <path d="M559.3 142.5 c-0.3 -0.9 -0.3 -3.9 -0.1 -6.6 0.8 -7.9 3.8 -10.3 13.6 -10.7 6.8 -0.3 8.1 -0.1 11.2 2 3.8 2.6 5.9 7.1 5.9 13.1 l0.1 3.7 -15 0 c-12.7 0 -15.2 -0.2 -15.7 -1.5z m25.7 -4.3 c0 -2.8 -2.9 -6.3 -6.5 -7.8 -6.2 -2.6 -13.3 0.5 -14.8 6.3 -0.5 2.2 -0.2 2.2 8.7 2.6 5 0.1 9.9 0.4 10.9 0.5 1 0.1 1.7 -0.5 1.7 -1.6z"/>
  <path d="M224.5 194.9 c-0.4 -0.6 -0.6 -7.7 -0.4 -15.7 0.2 -8.1 0.2 -31.8 0.1 -52.7 -0.1 -20.9 0.2 -39.6 0.6 -41.5 l0.8 -3.5 12.4 -0.3 c6.9 -0.1 13.5 0 14.7 0.3 l2.3 0.5 -0.3 56.2 -0.3 56.2 -2.4 0.7 c-4.2 1.2 -26.8 1 -27.5 -0.2z m25.9 -56.6 l0.5 -52.3 -10.9 0 -10.8 0 -0.7 8.3 c-0.4 4.5 -0.5 28.1 -0.3 52.5 l0.3 44.3 10.7 -0.3 10.7 -0.3 0.5 -52.2z"/>
  <path d="M264.5 194.9 c-0.3 -0.8 -0.4 -19.2 -0.3 -40.9 l0.3 -39.5 11.5 0 11.5 0 0.3 3.1 0.3 3 5.9 -2.9 c11.1 -5.5 26.5 -3.2 30.8 4.7 1.5 2.7 1.7 7.2 2 37.4 0.3 29.3 0.1 34.3 -1.1 34.8 -0.8 0.3 -5.9 0.6 -11.3 0.7 l-9.9 0.2 -0.6 -22.5 c-0.7 -25.9 -1.3 -28.6 -6.6 -29.6 -4.4 -0.8 -8.1 0.8 -9.3 4.2 -0.6 1.6 -0.9 11.4 -0.8 24 0.2 14.3 -0.1 21.7 -0.8 22.4 -0.6 0.6 -5.6 1.3 -11.2 1.7 -8.2 0.5 -10.3 0.3 -10.7 -0.8z m16.9 -4.5 c1.4 -0.5 1.6 -3.5 1.6 -22.6 0 -27.9 0.3 -28.7 12.5 -28.8 11.7 0 11.9 0.5 12.3 27 0.1 11.3 0.5 21.5 0.8 22.8 0.4 2 1 2.2 6.8 2.2 l6.4 0 0.7 -11.4 c1 -15.8 0.1 -48.3 -1.4 -52.3 -1.6 -4.1 -6.6 -7.2 -12.8 -7.9 -4.2 -0.5 -5.7 -0.1 -11.7 3 -3.8 2 -8.2 3.6 -9.7 3.6 -2.6 0 -2.9 -0.3 -2.9 -3.5 l0 -3.5 -7.4 0 -7.3 0 -0.7 3.8 c-0.8 4.8 -0.8 22.7 0.1 48 l0.6 20.2 5.3 0 c2.9 0 5.9 -0.3 6.8 -0.6z"/>
  <path d="M345.3 195 c-2.2 -0.9 -2.3 -1.5 -2.4 -13.7 -0.1 -7 -0.1 -19 0.1 -26.5 l0.2 -13.8 -5 0 c-2.8 0 -5.3 -0.4 -5.6 -0.9 -0.4 -0.5 -0.9 -5 -1.3 -10 -0.7 -10.8 0 -12.1 6.2 -12.1 l4.3 0 0.7 -5.2 c1.1 -9.3 3.5 -14.8 8.4 -19.8 5.8 -6 11.5 -7.9 26.6 -8.6 14.7 -0.8 14.8 -0.7 14.7 11.4 -0.1 12.8 -0.1 12.8 -11.6 13.5 -11.2 0.6 -13.6 1.6 -13.6 5.7 l0 3 10.4 0 c5.7 0 11.1 0.3 12 0.6 1.3 0.5 1.6 2.3 1.6 8.9 0 4.6 -0.4 9.5 -1 10.9 -0.9 2.6 -1.1 2.6 -12 2.6 l-11 0 0 26.3 c0 19.1 -0.3 26.6 -1.2 27.5 -1.4 1.4 -17.1 1.5 -20.5 0.2z m16.7 -31.5 l0 -27.5 11.9 0 11.8 0 0.7 -4.6 c1.2 -9 2.1 -8.4 -11.3 -8.4 -13.2 0 -13.2 0 -13 -6.8 0.2 -9.1 2.1 -10.5 16.5 -11.7 8.1 -0.7 8.2 -0.8 8.8 -3.7 0.9 -4.3 0.7 -9.1 -0.3 -10.7 -1.3 -2 -19.1 -1 -24.9 1.4 -8.9 3.6 -15.2 14.5 -15.2 26.2 l0 5.3 -5.5 0 -5.5 0 0 6.5 0 6.5 5.5 0 5.5 0 0 27.5 0 27.5 7.5 0 7.5 0 0 -27.5z"/>
  <path d="M469.5 195.3 c-1.1 -0.3 -2.3 -0.8 -2.7 -1.1 -0.4 -0.4 -0.8 -25.2 -0.9 -55.2 l-0.2 -54.5 4.9 -1.4 c7.5 -2.1 29.4 -2 37.4 0.2 13.7 3.7 22.1 9.9 26.9 20 3.9 8.2 4.7 14.8 2.6 22.8 -4 16 -18.7 28.3 -35.1 29.7 l-6.4 0.5 0 18.8 c0 13.7 -0.3 19 -1.2 19.5 -1.5 0.9 -22.4 1.5 -25.3 0.7z m20.8 -4.9 c1.3 -0.5 1.4 -3.3 1 -20 l-0.6 -19.4 7.5 0 c6.6 0 8.4 -0.4 14.6 -3.5 7.8 -3.9 14.7 -10.7 18.2 -17.9 8.4 -17.4 -4 -36.6 -27.1 -42.1 -7.6 -1.8 -20.4 -1.9 -28.2 -0.4 l-5.7 1.2 0 45.2 c0 24.9 0.3 48 0.6 51.4 l0.7 6.1 8.8 0 c4.8 0 9.4 -0.3 10.2 -0.6z"/>
  <path d="M487.5 129.8 c-0.3 -2.4 -0.5 -9 -0.3 -14.8 l0.3 -10.5 8 -0.3 c9.4 -0.3 15.2 1.5 19 5.9 2.1 2.6 2.5 4 2.5 9.8 0 11.3 -4.2 14.1 -20.9 14.1 l-8 0 -0.6 -4.2z m23.1 -4.1 c5.8 -6.8 0.3 -15.2 -11.3 -17.2 -2.3 -0.3 -5.1 -0.4 -6.3 0 -2.2 0.7 -2.5 3.4 -1.3 14.5 l0.6 6.2 7.9 -0.4 c7.3 -0.3 8.2 -0.6 10.4 -3.1z"/>
  <path d="M644.4 194.9 c-8.3 -1 -15.7 -4.4 -19.7 -8.9 -2.9 -3.1 -3.6 -4.9 -4.6 -11.4 -0.6 -4.2 -1.1 -10.3 -1.1 -13.5 0 -3.2 -0.3 -9.9 -0.6 -14.9 l-0.7 -9.1 -5.1 -0.3 -5.1 -0.3 0.2 -10.4 c0.2 -11.6 0.4 -12.1 7 -12.1 l4.2 0 0 -14.1 c0 -7.8 0.3 -14.4 0.6 -14.7 0.7 -0.7 20.5 -0.3 21.7 0.4 0.4 0.3 0.8 6.8 0.8 14.5 l0 13.9 10.8 0 c14.6 0 14.8 0.1 14.4 12.1 -0.1 5 -0.5 9.6 -0.8 10 -0.3 0.5 -5.7 0.9 -12 0.9 l-11.4 0 0 14.9 0 14.9 3.8 1.8 c2.1 1 7 1.9 11.5 2.2 9.4 0.6 9.7 1 9.7 13.3 0 11.5 -0.4 11.9 -9.8 11.8 -4.2 -0.1 -10.5 -0.5 -13.8 -1z m19.1 -6.9 c0.3 -1.6 0.3 -4.9 0 -7.3 l-0.7 -4.3 -8.1 -1 c-4.5 -0.6 -9.8 -1.8 -11.9 -2.8 l-3.6 -1.7 -0.7 -13.2 c-0.4 -7.3 -0.5 -15.9 -0.3 -19.2 l0.3 -6 12.3 -0.3 12.3 -0.3 -0.3 -6.2 -0.3 -6.2 -12.2 -0.3 -12.3 -0.3 0 -14.4 0 -14.5 -3.7 0 c-2.1 0 -5.5 -0.3 -7.5 -0.6 l-3.8 -0.7 0 15.2 0 15.1 -5.5 0 -5.5 0 0 6.5 0 6.5 5.4 0 5.3 0 0.6 19.3 c0.4 10.5 1.1 21.1 1.6 23.5 2 10 13.3 16 30.3 16.1 l7.6 0.1 0.7 -3z"/>
 </g>
 <g fill="#f16bd4">
  <path d="M556.3 192.9 c-12.4 -6.1 -18.5 -27.6 -15.3 -53.9 1.7 -13.6 5.6 -19.2 16.5 -23.9 8.7 -3.8 27.4 -2.1 35.3 3.3 7.2 4.8 10.4 11.9 11 24.4 l0.5 9.9 -5.4 0.6 c-3 0.4 -12.5 0.7 -21.1 0.7 l-15.8 0 0 5.5 c0 10 4.7 16.5 11.9 16.5 5.6 -0.1 9.1 -3.8 9.1 -9.9 l0 -3.1 10 0 10 0 0 5.8 c0 7.8 -2.3 17.7 -4.6 20.3 -4.1 4.7 -8.9 5.9 -23.9 5.9 -12.2 0 -14.5 -0.3 -18.2 -2.1z m30.1 -54.6 c-1 -4.2 -3.1 -7.1 -6.6 -8.9 -4.2 -2.2 -11.1 -1.4 -14.3 1.6 -2.5 2.3 -4.1 7.2 -3 9 0.4 0.6 5.5 1 12.6 1 l11.9 0 -0.6 -2.7z"/>
  <path d="M467.6 187.9 c-0.3 -3.4 -0.6 -27.9 -0.6 -54.4 l0 -48.2 5.7 -1.2 c8 -1.6 26.6 -1.4 34.2 0.4 13.8 3.3 24 11.4 28.2 22.4 2.8 7.3 2.3 18.5 -1 25.4 -3.7 7.7 -10.4 14.2 -18.6 18.3 -6.3 3.1 -8.5 3.7 -14.6 3.8 l-7.2 0.1 0.7 19.1 c0.6 17.2 0.5 19.2 -0.9 19.8 -0.9 0.3 -7 0.6 -13.4 0.6 l-11.8 0 -0.7 -6.1z m38 -58 c5.5 -1.4 8.4 -4.8 8.4 -10 0 -7.5 -8.5 -13.3 -18.6 -12.7 l-4.9 0.3 -0.3 7.5 c-0.2 4.1 0 9.4 0.3 11.8 l0.6 4.2 5 0 c2.8 0 7 -0.5 9.5 -1.1z"/>
  <path d="M639.2 192.4 c-10.3 -2.7 -15.9 -7.4 -17.3 -14.6 -0.5 -2.4 -1.2 -13 -1.6 -23.5 l-0.6 -19.3 -5.3 0 -5.4 0 0 -9.5 0 -9.5 5.5 0 5.5 0 0 -15 0 -15 2.8 0 c1.6 0 6.3 0.3 10.5 0.6 l7.7 0.7 0 14.3 0 14.3 12.3 0.3 12.2 0.3 0.3 9.2 0.3 9.2 -12.3 0.3 -12.3 0.3 -0.3 3 c-0.2 1.7 -0.1 8.9 0.3 16.2 l0.7 13.2 3.6 1.7 c2.1 1 7.4 2.2 11.8 2.8 l8.2 1 0.6 3.5 c0.7 4.6 0.7 12 0 14.9 -0.6 2.1 -1.1 2.2 -11.3 2.1 -5.8 0 -13 -0.7 -15.9 -1.5z"/>
 </g>
 <g fill="#ffffff">
  <path d="M411.2 193.3 c-5.3 -1.8 -12.4 -8.8 -14.1 -13.9 -1 -2.7 -1.5 -10.8 -1.8 -25.5 -0.4 -17.9 -0.2 -22.5 1.2 -27.2 3.2 -10.9 10.7 -14.1 32.4 -13.5 13.3 0.3 13.9 0.4 18.6 3.3 6 3.7 8.1 7.1 9.4 15.5 2 12.1 0.8 43.1 -2 51.7 -1.3 4.1 -6.8 8.9 -11.6 10.2 -5.8 1.6 -27 1.2 -32.1 -0.6z m20.6 -21.4 c4.4 -1.5 5.7 -5.5 5.7 -17.6 0 -8.8 -0.3 -10.5 -2.1 -13 -2.8 -3.8 -8.1 -5.1 -13.1 -3.2 -5.5 2.1 -6.3 4.5 -6.3 18.7 l0 12.2 3.3 2 c3.6 2.2 7.9 2.5 12.5 0.9z"/>
  <path d="M225.2 146.8 c-0.2 -26 0 -51 0.3 -55.6 l0.7 -8.2 13.8 0 13.9 0 -0.4 55.3 -0.5 55.2 -13.7 0.3 -13.8 0.2 -0.3 -47.2z"/>
  <path d="M265.5 166.4 c-0.7 -25.6 -0.4 -48.9 0.6 -49.8 0.2 -0.2 4.9 -0.5 10.4 -0.7 l10 -0.4 0.3 3.6 0.3 3.7 6.7 -3.5 c6.3 -3.3 7.1 -3.5 14.3 -3.1 9.4 0.6 14.1 3.1 16.1 8.6 1 2.8 1.3 11.9 1.3 36.2 l0 32.5 -9.7 0.3 c-9.4 0.3 -9.8 0.2 -10.2 -2 -0.3 -1.3 -0.7 -11.5 -0.8 -22.8 -0.4 -25.1 -1.1 -27 -9.3 -27 -2.2 0.1 -4.7 0.6 -5.6 1.3 -3.5 2.7 -3.9 5.3 -3.9 27.5 0 19.1 -0.2 22.1 -1.6 22.6 -0.9 0.3 -5.3 0.6 -9.9 0.6 l-8.3 0 -0.7 -27.6z"/>
  <path d="M344 166.5 l0 -27.5 -5.5 0 -5.5 0 0 -9.5 0 -9.5 5.5 0 5.5 0 0 -5.3 c0 -11.7 6.3 -22.5 15.2 -26.2 5.8 -2.4 29.6 -3.5 30.9 -1.4 1 1.6 1.2 12.2 0.3 16.7 -0.6 2.9 -0.7 3 -8.8 3.7 -11.3 1 -14.8 2.3 -15.8 6 -1.6 6.1 -0.9 6.5 12.3 6.5 l11.9 0 0 4.9 c0 2.6 -0.3 6.9 -0.6 9.5 l-0.7 4.6 -11.8 0 -11.9 0 0 27.5 0 27.5 -10.5 0 -10.5 0 0 -27.5z"/>
 </g>
</svg>