<svg width="93" height="93" viewBox="0 0 93 93" fill="none" xmlns="http://www.w3.org/2000/svg">
<path d="M32.4087 37.8584C32.4087 32.6504 28.1846 28.4272 22.9757 28.4272C17.7668 28.4272 13.5446 32.6504 13.5446 37.8584C13.5446 43.0701 17.7658 47.2914 22.9757 47.2914C28.1855 47.2914 32.4087 43.0701 32.4087 37.8584ZM70.0225 30.2696C64.8145 30.2696 60.5914 34.4927 60.5914 39.7007C60.5914 44.9124 64.8145 49.1318 70.0225 49.1318C75.2315 49.1318 79.4546 44.9124 79.4546 39.7007C79.4546 34.4927 75.2324 30.2696 70.0225 30.2696ZM61.4563 50.1995C60.8006 49.3913 59.8725 48.4557 58.8067 47.4746C55.9628 43.789 51.5146 41.4045 46.5 41.4045C42.037 41.4045 38.0249 43.2942 35.1894 46.3056C33.5786 47.7071 32.1464 49.0751 31.235 50.2004L30.6249 50.9453C27.7791 54.4152 24.2368 58.7322 24.2628 66.0578C24.2879 72.8608 29.8279 78.3989 36.6113 78.3989C38.4938 78.403 40.3518 77.9721 42.0403 77.1399C43.7288 76.3076 45.2023 75.0965 46.3457 73.6011C47.4892 75.0971 48.963 76.3085 50.6521 77.1408C52.3412 77.9731 54.1998 78.4037 56.0828 78.3989C62.8634 78.3989 68.4025 72.8617 68.4285 66.0578C68.4545 58.7322 64.9112 54.4152 62.0664 50.9453L61.4563 50.1995Z" fill="#F16BD4" fill-opacity="0.8"/>
<path d="M47.1537 35.3883C52.8935 35.3883 57.5465 30.7353 57.5465 24.9955C57.5465 19.2558 52.8935 14.6028 47.1537 14.6028C41.414 14.6028 36.761 19.2558 36.761 24.9955C36.761 30.7353 41.414 35.3883 47.1537 35.3883Z" fill="#F16BD4" fill-opacity="0.8"/>
</svg>
